# xmcd CD database file
#
# Track frame offsets:
#	150
#	29420
#	66132
#	103492
#	141255
#	177382
#	213930
#	253311
#	268458
#	305646
#	339396
#
# Disc length: 4660 seconds
#
# Revision: 2
# Processed by: cddbd v1.5.2PL0 Copyright (c) Steve Scherf et al.
# Submitted via: CDex 1.51
#
DISCID=b612320b
DTITLE=Paul Desmond - Complete Oberlin and College of the Pacific Concerts 2
DYEAR=2005
DGENRE=Jazz
TTITLE0=Crazy Rhythm
TTITLE1=Let's Fall in Love
TTITLE2=Stardust
TTITLE3=How High the Moon
TTITLE4=The Way You Look Tonight
TTITLE5=Love Waked In
TTITLE6=Give a Little Whistle
TTITLE7=Trolley Song
TTITLE8=Blue Moon
TTITLE9=Jeepers Creepers
TTITLE10=Trolley Song
EXTD=YEAR: 2005
EXTT0=
EXTT1=
EXTT2=
EXTT3=
EXTT4=
EXTT5=
EXTT6=
EXTT7=
EXTT8=
EXTT9=
EXTT10=
PLAYORDER=
